# xmcd
#
# Track frame offsets: 
#        150
#        17855
#        36438
#        50590
#        64738
#        79099
#        92995
#        107313
#        119328
#        141132
#        153066
#        170553
#        191267
#        209827
#        225141
#        239306
#
# Disc length: 3446 seconds
#
# Revision: 0
# Processed by: cddbd v1.5.2PL0 Copyright (c) Steve Scherf et al.
# Submitted via: ExactAudioCopyFreeDBPlugin 1.0
#
DISCID=d00d7410
DTITLE=Roger Morris - First Album
DYEAR=1972
DGENRE=Folk/Rock
TTITLE0=Taken For Granted
TTITLE1=The Vigil
TTITLE2=Golightly's Almanac
TTITLE3=Showdown
TTITLE4=All my Riches
TTITLE5=The Trail of Tears
TTITLE6=Northern Star
TTITLE7=Poor Lucy
TTITLE8=Livin'on Memories
TTITLE9=First Show
TTITLE10=Let the Four Winds Blow
TTITLE11=Idaho
TTITLE12=Mississippi Story (bonus track)
TTITLE13=Down the Meadow (bonus track)
TTITLE14=The Number I Need (bonus track)
TTITLE15=Copenhagen Moon (bonus track)
EXTD=
EXTT0=
EXTT1=
EXTT2=
EXTT3=
EXTT4=
EXTT5=
EXTT6=
EXTT7=
EXTT8=
EXTT9=
EXTT10=
EXTT11=
EXTT12=
EXTT13=
EXTT14=
EXTT15=
PLAYORDER=
